<?xml version="1.0"?>
<svg xmlns="http://www.w3.org/2000/svg" xmlns:xlink="http://www.w3.org/1999/xlink" version="1.1" id="Capa_1" x="0px" y="0px" viewBox="0 0 50.423 50.423" style="enable-background:new 0 0 50.423 50.423;" xml:space="preserve" width="512px" height="512px" class=""><g><g>
	<path style="fill:#0096E6" d="M40.202,50.423H9.442c-2.613,0-4.731-2.118-4.731-4.731V10.423h35.49c3.043,0,5.51,2.467,5.51,5.51   v28.981C45.711,47.956,43.245,50.423,40.202,50.423z" data-original="#0096E6" class="" data-old_color="#0096E6"/>
	<path style="fill:#8ED1EF" d="M37.711,10.423h-33L30.182,0.389c3.615-1.424,7.529,1.241,7.529,5.126V10.423z" data-original="#8ED1EF" class=""/>
	<polygon style="fill:#D0E8F9" points="25.711,16.423 30.049,25.212 39.749,26.622 32.73,33.463 34.387,43.124 25.711,38.563    17.036,43.124 18.693,33.463 11.674,26.622 21.374,25.212  " data-original="#D0E8F9" class="active-path" data-old_color="#D0E8F9"/>
</g></g> </svg>
